<?xml version="1.0" encoding="utf-8"?>
<!-- Generator: Adobe Illustrator 24.0.3, SVG Export Plug-In . SVG Version: 6.00 Build 0)  -->
<!DOCTYPE svg PUBLIC "-//W3C//DTD SVG 1.1//EN" "http://www.w3.org/Graphics/SVG/1.1/DTD/svg11.dtd" [
	<!ENTITY ns_extend "http://ns.adobe.com/Extensibility/1.0/">
	<!ENTITY ns_ai "http://ns.adobe.com/AdobeIllustrator/10.0/">
	<!ENTITY ns_graphs "http://ns.adobe.com/Graphs/1.0/">
	<!ENTITY ns_vars "http://ns.adobe.com/Variables/1.0/">
	<!ENTITY ns_imrep "http://ns.adobe.com/ImageReplacement/1.0/">
	<!ENTITY ns_sfw "http://ns.adobe.com/SaveForWeb/1.0/">
	<!ENTITY ns_custom "http://ns.adobe.com/GenericCustomNamespace/1.0/">
	<!ENTITY ns_adobe_xpath "http://ns.adobe.com/XPath/1.0/">
]>
<svg version="1.1" id="Layer_1" xmlns:x="&ns_extend;" xmlns:i="&ns_ai;" xmlns:graph="&ns_graphs;"
	 xmlns="http://www.w3.org/2000/svg" xmlns:xlink="http://www.w3.org/1999/xlink" x="0px" y="0px" viewBox="0 0 390.4 372.5"
	 style="enable-background:new 0 0 390.4 372.5;" xml:space="preserve">
<style type="text/css">
	.st0{fill:#FFFFFF;stroke:#5656FF;stroke-width:15;}
	.st1{fill:#FFFFFF;stroke:#5656FF;stroke-width:5;}
</style>
<metadata>
	<sfw  xmlns="&ns_sfw;">
		<slices></slices>
		<sliceSourceBounds  bottomLeftOrigin="true" height="372.5" width="390.4" x="-1.2" y="108.7"></sliceSourceBounds>
	</sfw>
</metadata>
<g>
	<g id="layer1">
		<g id="g5183">
			<path id="path5185" class="st0" d="M110.5,8.3L231.7,86l142.8,18.4c6.6,2.4,10.1,9.7,7.6,16.4l-85.8,235.8
				c-2.4,6.6-9.7,10.1-16.4,7.6l-142.8-18.4L15.9,268.1c-6.6-2.4-10.1-9.7-7.6-16.4L94.1,15.9C96.5,9.3,103.8,5.9,110.5,8.3
				L110.5,8.3z"/>
			<g>
				<path id="path5187" class="st1" d="M133.7,251.9c-0.1-0.4-0.1-0.8,0-1.2c0-0.4,0.1-0.8,0.2-1.2
					C133.6,250.3,133.6,251.1,133.7,251.9z"/>
				<path id="path5189" class="st1" d="M139.3,260.1c-1.1-0.9-2-1.9-2.8-2.8c-0.8-0.9-1.4-1.9-1.9-2.8
					C135.5,256.3,137.1,258.2,139.3,260.1z"/>
				<path id="path5191" class="st1" d="M184.5,273.6c-0.6,0.2-1.2,0.4-1.9,0.5c-0.8,0.1-1.8,0.2-2.7,0.3
					C181.6,274.2,183.2,274,184.5,273.6z"/>
				<path id="path5193" class="st1" d="M100.8,264.2c-19,7.9-50.9,8.3-71.2,0.9c-20.3-7.4-21.3-19.7-2.3-27.6c0,0,0,0,0,0
					c-18.9-2.9-28.2-11.1-20.8-18.4c7.4-7.3,28.7-10.9,47.6-8.1s28.2,11.1,20.8,18.4c-3.7,3.7-11.3,6.6-20.8,8.1"/>
				<path id="path5195" class="st1" d="M14,259l44-0.8l81.8,80.2l114.2-8.9l33.2,28.9c29.7-81.7,59.4-163.3,89.2-245l-33.2-28.9
					L229,93.4l-81.8-80.2l-44,0.8C73.5,95.7,43.8,177.4,14,259L14,259z"/>
				<path id="path5197" class="st1" d="M14,259l125.8,79.4l147.4,20c29.7-81.7,59.4-163.3,89.2-245l-33.2-28.9L229,93.4l-81.8-80.2
					l-44,0.8C73.5,95.7,43.8,177.4,14,259L14,259z"/>
				<path id="path5199" class="st1" d="M14,259l44-0.8l81.8,80.2l114.2-8.9l33.2,28.9c29.7-81.7,59.4-163.3,89.2-245l-33.2-28.9
					L229,93.4l-81.8-80.2l-44,0.8C73.5,95.7,43.8,177.4,14,259L14,259z"/>
				<path id="path5201" class="st1" d="M14,259l44-0.8l89.2-245l-44,0.8C73.5,95.7,43.8,177.4,14,259L14,259z"/>
				<path id="path5203" class="st1" d="M254,329.5l33.2,28.9c29.7-81.7,59.4-163.3,89.2-245l-33.2-28.9L254,329.5L254,329.5z"/>
				<path id="path5205" class="st1" d="M58,258.2c0,0,30.6,15.3,51,35.4s30.8,44.8,30.8,44.8s23.8-12.3,52.4-14.6
					c28.5-2.2,61.8,5.7,61.8,5.7l89.2-245c0,0-33.3-7.9-61.8-5.7C252.8,81.1,229,93.4,229,93.4s-10.3-24.8-30.8-44.8
					c-20.4-20.1-51-35.4-51-35.4L58,258.2L58,258.2z"/>
				<path id="path5207" class="st1" d="M229,93.4l-89.2,245c0,0,23.8-12.3,52.4-14.6c28.5-2.2,61.8,5.7,61.8,5.7l89.2-245
					c0,0-33.3-7.9-61.8-5.7C252.8,81.1,229,93.4,229,93.4L229,93.4z"/>
				<path id="path5209" class="st1" d="M147.2,13.2L58,258.2c0,0,30.6,15.3,51,35.4s30.8,44.8,30.8,44.8l89.2-245
					c0,0-10.3-24.8-30.8-44.8C177.8,28.6,147.2,13.2,147.2,13.2L147.2,13.2z"/>
				<path id="path5211" class="st1" d="M58,258.2L14,259l125.8,79.4c0,0-0.7-1.5-1.9-4.2c-1.3-2.6-3.2-6.4-5.8-10.7
					c-1.3-2.2-2.7-4.5-4.3-6.9c-1.6-2.4-3.4-4.9-5.3-7.5c-1.9-2.6-4-5.2-6.3-7.8c-2.2-2.6-4.6-5.2-7.2-7.7c-2.6-2.5-5.3-4.9-8.1-7.3
					c-2.8-2.3-5.7-4.6-8.5-6.7c-2.9-2.1-5.7-4.1-8.5-6c-2.8-1.9-5.5-3.6-8-5.2c-5.1-3.2-9.6-5.7-12.7-7.4
					C59.9,259.2,58,258.2,58,258.2L58,258.2z"/>
				<path id="path5213" class="st1" d="M139.8,338.4l147.4,20L254,329.5c0,0-2.1-0.5-5.7-1.2c-3.6-0.7-8.6-1.6-14.5-2.5
					c-3-0.4-6.2-0.8-9.5-1.2c-3.3-0.4-6.8-0.7-10.4-0.9c-3.6-0.2-7.2-0.3-10.9-0.4c-3.6,0-7.3,0.1-10.9,0.4
					c-3.6,0.3-7.1,0.7-10.4,1.3c-3.4,0.5-6.7,1.2-9.8,2c-3.1,0.7-6.1,1.5-8.9,2.4c-2.8,0.8-5.4,1.7-7.8,2.5
					c-4.8,1.7-8.6,3.3-11.3,4.5C141.3,337.7,139.8,338.4,139.8,338.4L139.8,338.4z"/>
				<path id="path5215" class="st1" d="M229,93.4l-89.2,245c0,0,16.3-28.5,42.3-36.1c26-7.6,61.8,5.7,61.8,5.7l89.2-245
					c0,0-35.8-13.3-61.8-5.7C245.3,65,229,93.4,229,93.4L229,93.4z"/>
			</g>
		</g>
	</g>
</g>
</svg>
